<svg width="65" height="49" viewBox="0 0 65 49" fill="none" xmlns="http://www.w3.org/2000/svg">
<g clip-path="url(#clip0_833_111)">
<rect width="65" height="49" fill="white"/>
<path d="M46.982 2.456C50.566 2.456 53.5527 3.56533 55.942 5.784C58.246 8.088 59.398 11.0747 59.398 14.744C59.398 15.8533 59.3127 16.92 59.142 17.944C58.9713 19.0533 58.63 20.3333 58.118 21.784C57.606 23.2347 56.8807 25.1547 55.942 27.544L48.518 45.976L35.846 45.976L44.294 15.256L47.11 26.776C43.4407 26.776 40.454 25.7093 38.15 23.576C35.846 21.4427 34.694 18.4987 34.694 14.744C34.694 11.0747 35.8887 8.088 38.278 5.784C40.582 3.56533 43.4833 2.456 46.982 2.456ZM16.774 2.456C20.358 2.456 23.3447 3.56533 25.734 5.784C28.038 8.088 29.19 11.0747 29.19 14.744C29.19 15.8533 29.1047 16.92 28.934 17.944C28.7633 19.0533 28.422 20.3333 27.91 21.784C27.398 23.2347 26.6727 25.1547 25.734 27.544L18.31 45.976L5.63798 45.976L14.086 15.256L16.902 26.776C13.2327 26.776 10.246 25.7093 7.94199 23.576C5.63799 21.4427 4.48599 18.4987 4.48599 14.744C4.48599 11.0747 5.68065 8.088 8.06999 5.784C10.374 3.56533 13.2753 2.456 16.774 2.456Z" fill="#6C1014"/>
</g>
<defs>
<clipPath id="clip0_833_111">
<rect width="65" height="49" fill="white"/>
</clipPath>
</defs>
</svg>
