<?xml version="1.0" encoding="UTF-8"?>
<svg id="Calque_2" data-name="Calque 2" xmlns="http://www.w3.org/2000/svg" viewBox="0 0 105.31 99.05">
  <defs>
    <style>
      .cls-1 {
        fill: #ece6db;
      }
    </style>
  </defs>
  <g id="Calque_2-2" data-name="Calque 2">
    <path class="cls-1" d="M27.59,61.1c-2.53,5.19-5.17,10.34-6.7,15.94-6.29-6.39-11.73-14.43-15.4-22.64C-1.65,38.44-3.97,16.8,11.89,5.28c.24.19.14.78.12,1.08-.73,9.54-1.75,17.38-.45,27.09,1.48,10.94,5.98,22.07,16.03,27.65Z"/>
    <path class="cls-1" d="M38.89,45.36l-8.75,11.29c-7.37-3.78-11.07-11.61-12.78-19.4-2.48-11.33-1.48-23.49.29-34.85C21.22.69,25.36.15,29.29,0c-.31,2.04-.71,4.1-.93,6.15-1.32,12.19-.83,27.03,7.66,36.68.77.88,1.84,2.06,2.87,2.53Z"/>
  </g>
  <g id="Calque_3" data-name="Calque 3">
    <path class="cls-1" d="M50.58,3.17c-3.14-1.32-3.92-1.25-7-2-1.21-.3-8.64-1.39-9.21-.9-2.19,13.68-3.71,31.44,7.8,41.47,1.5-1.36,4.9-4.22,6.41-5.57-3-3-6-9.95-6-15,0-8.19,3-13,8-18Z"/>
    <path class="cls-1" d="M99.9,11.83C91.67-.03,76.66-1.61,63.44,1.2c-1.16.25-3.26.81-3.77.95-.07.02-.14.04-.21.08-7.32,3.39-11.93,9.17-12.49,16.5-.35,4.55.93,9.02,3.69,12.92l1.48,2.08,2.21-1.37c2.49-1.54,5.47-3.33,8.62-4.87,6.97-3.38,13.92-5.75,20.67-7.05l.37-.07.02.02-.52,2.3-7.92,2.58s-.06.02-.08.03c-9.08,3.54-17.88,9.2-25.59,16.2-10.28,9.33-18.61,21.05-23.03,33.28-.48,1.32-1.9,5.1-1.91,6.27-.01.36.05.6.33.83,7.96,7.08,16.81,13.52,26.94,17.11.29.1.61.1.89-.01,20.04-7.82,37.89-25.01,46.68-44.63,5.78-12.93,8.67-30.15.08-42.5Z"/>
  </g>
</svg>